# xmcd
#
# Track frame offsets:
#   150
#   14116
#   29849
#   47790
#   65210
#   81182
#   96486
#   109012
#   119155
#   136747
#   153683
#   170160
#   181781
#   198550
#   218307
#   231538
#   239144
#   262780
#   272081
#   281660
#   294511
#   310679
#   323961
#
# Disc length: 4599 seconds
#
# Revision: 0
# Processed by: cddbd v1.5.1PL0 Copyright (c) Steve Scherf et al.
# Submitted via: uFREEDB ActiveX Control 1.5
#
DISCID=6d11f517
DTITLE=Marcelo D2  - a
DYEAR=2000
DGENRE=a
TTITLE0=À Procura da Batida Perfeita
TTITLE1=Vai Vendo
TTITLE2=A Maldiçao do Samba
TTITLE3=Pilotando o Bonde da Excursão
TTITLE4=Loadeando
TTITLE5=Profissão MC
TTITLE6=CB Sangue Bom
TTITLE7=Batidas e Levadas
TTITLE8=Re-Batucada - Do Jeito Que o Rei Mandou
TTITLE9=Qual É?
TTITLE10=1967
TTITLE11=Sessão
TTITLE12=Eu Tiro É Onda
TTITLE13=Mantenha o Respeito 2
TTITLE14=Samba de Primeira
TTITLE15=Fazendo Efeito
TTITLE16=O Império Contra-Ataca
TTITLE17=Eu Tive Um Sonho
TTITLE18=Encontro Com Nogueira
TTITLE19=Batucada
TTITLE20=Baseado Em Fatos Reais
TTITLE21=Camisa 10
TTITLE22=Que Lei É Essa
EXTD=
EXTT0=
EXTT1=
EXTT2=
EXTT3=
EXTT4=
EXTT5=
EXTT6=
EXTT7=
EXTT8=
EXTT9=
EXTT10=
EXTT11=
EXTT12=
EXTT13=
EXTT14=
EXTT15=
EXTT16=
EXTT17=
EXTT18=
EXTT19=
EXTT20=
EXTT21=
EXTT22=
PLAYORDER=
